<?xml version="1.0" encoding="UTF-8" standalone="no"?>
<svg width="402px" height="187px" viewBox="0 0 402 187" version="1.1" xmlns="http://www.w3.org/2000/svg" xmlns:xlink="http://www.w3.org/1999/xlink" xmlns:sketch="http://www.bohemiancoding.com/sketch/ns">
    <!-- Generator: Sketch 3.0.3 (7891) - http://www.bohemiancoding.com/sketch -->
    <title>logo-edX-current--sketch-produced</title>
    <desc>Created with Sketch.</desc>
    <defs>
        <path id="path-1" d="M153.56988,29.4597855 L153.56988,-0.00665104809 L80.5065602,-0.00665104809 L80.5065602,29.4597855 L97.1112379,29.4597855 L67.5116942,66.1621036 L37.8824872,29.4597855 L54.5579007,29.4597855 L54.5579007,-0.00665104809 L-0.0250998289,-0.00665104809 L-0.0250998289,32.9848409 L47.1466058,91.4154451 L-0.0250998289,149.905679 L-0.0250998289,155.79071 L22.4666286,155.79071 L22.4666286,185.988762 L54.5579007,185.988762 L54.5579007,155.79071 L35.9840274,155.79071 L67.5322305,116.668787 L67.5345123,116.668787 L99.1169424,155.79071 L80.5065602,155.79071 L80.5065602,185.988762 L153.56988,185.988762 L153.56988,155.79071 L139.867655,155.79071 L87.8996007,91.4154451 L137.864233,29.4597855 L153.56988,29.4597855 L153.56988,29.4597855 Z"></path>
        <path id="path-3" d="M0.0935539076,-0.00665104809 L0.0935539076,29.4597855 L16.0684541,29.4597855 L18.913862,32.9848409 L18.913862,-0.00665104809 L0.0935539076,-0.00665104809 L0.0935539076,-0.00665104809 Z"></path>
        <path id="path-5" d="M18.913862,5.79810851 L18.913862,-0.0869223181 L14.1677125,5.79810851 L0.0935539076,5.79810851 L0.0935539076,35.9961603 L41.4055904,35.9961603 L41.4055904,5.79810851 L18.913862,5.79810851 L18.913862,5.79810851 Z"></path>
        <path id="path-7" d="M0.0935539076,-0.0247694205 L26.0353679,-0.0247694205 C22.9572162,7.62829346 18.6400456,14.607307 13.3143183,20.6391196 C7.80604678,14.607307 3.31089561,7.62829346 0.0935539076,-0.0247694205 L0.0935539076,-0.0247694205 Z"></path>
        <path d="M5.62920707,36.4296252 L0.999429549,36.4296252 C0.308043354,40.4431887 -0.0524814604,44.5714254 -0.0524814604,48.7822269 C-0.0524814604,52.754508 0.266970907,56.6511048 0.883057616,60.4490826 L5.82087849,60.4490826 C6.83628066,56.7451369 7.37706788,52.8301924 7.37706788,48.7822269 C7.37706788,44.4842737 6.76782658,40.3353958 5.62920707,36.4296252 L5.62920707,36.4296252 Z M5.62920707,36.4296252 C6.76782658,40.3353958 7.37729606,44.4842737 7.37729606,48.7822269 C7.37729606,52.8304217 6.83628066,56.7451369 5.82087849,60.4490826 L31.0804335,60.4490826 C30.0171135,56.7451369 29.4491728,52.8304217 29.4491728,48.7822269 C29.4491728,44.4842737 30.0903594,40.3353958 31.2857958,36.4296252 L5.62920707,36.4296252 L5.62920707,36.4296252 Z M18.7906446,0.0942614057 C11.3656589,8.22918126 5.77752424,18.0841998 2.68568169,28.9965055 C3.88590987,31.3496005 4.87393041,33.8357164 5.62920707,36.4296252 L31.2857958,36.4296252 C32.0616087,33.8769988 33.0770108,31.4275783 34.3023388,29.1065919 C31.3565317,18.1507102 25.9942955,8.25670284 18.7906446,0.0942614057 L18.7906446,0.0942614057 Z" id="path-9"></path>
        <path d="M1.77318882,94.1309075 C1.08157444,96.5573933 0.518197376,99.0389223 0.0867084997,101.564027 L4.71648602,101.564027 C3.96120936,98.9701184 2.97318882,96.4840025 1.77318882,94.1309075 L1.77318882,94.1309075 Z M111.258414,172.973349 L111.258414,185.988762 L121.941814,185.988762 L121.941814,163.425655 C118.715573,166.966764 115.139989,170.168441 111.258414,172.973349 L111.258414,172.973349 Z M137.916714,29.4597855 L121.941814,29.4597855 L121.941814,-0.00665104809 L91.7695379,-0.00665104809 L91.7695379,29.4597855 L111.258414,29.4597855 L111.258414,54.8599088 C99.9269823,46.6676523 86.0079863,41.8605499 70.7244723,41.8605499 C49.8071877,41.8605499 30.9800342,50.864693 17.8779236,65.2286634 C25.0818026,73.3911048 30.4440388,83.2851122 33.3896178,94.2409938 C40.4107245,80.9274303 54.3413577,71.8590703 70.3799201,71.8590703 C93.4900171,71.8590703 111.258414,90.6884168 111.258414,113.916629 L111.258414,114.145975 C111.142042,137.268688 93.4147176,155.974187 70.3799201,155.974187 C54.3413577,155.974187 40.4107245,146.905827 33.3896178,133.592493 L33.3896178,133.592264 C32.0547633,131.064866 30.970907,128.383805 30.1677125,125.583485 L-0.0296634341,125.583485 C0.41756988,128.34711 1.01996577,131.055921 1.77296064,133.70235 C2.56930975,136.523312 3.53679407,139.273176 4.65715916,141.940705 L30.5989732,141.940705 C27.5210496,149.593768 23.2036509,156.572782 17.8779236,162.604594 C30.9800342,176.968565 49.8071877,185.972708 70.7244723,185.972708 C86.0079863,185.972708 99.9269823,181.165605 111.258414,172.973349 C115.139989,170.168212 118.715573,166.966535 121.941814,163.425655 L121.941814,155.79071 L136.015973,155.79071 L140.762122,149.905679 L140.762122,32.9848409 L137.916714,29.4597855 L137.916714,29.4597855 Z" id="path-11"></path>
        <path d="M101.89846,99.9702984 C94.4962921,108.58203 83.6326298,114.003781 71.2333143,114.003781 C52.150599,114.003781 36.0524815,101.165194 31.0211067,83.6130777 L105.617798,83.6130777 C105.001711,79.8150999 104.682259,75.9185031 104.682259,71.9462219 C104.682259,67.7354205 105.042784,63.6071837 105.73417,59.5936202 L0.937820878,59.5936202 C0.246662864,63.6071837 -0.113861951,67.7354205 -0.113861951,71.9462219 C-0.113861951,75.9185031 0.205362236,79.8150999 0.821677125,83.6130777 L0.821448945,83.6130777 C6.36851112,117.861388 35.9361095,144.002301 71.5778665,144.002301 C92.4951512,144.002301 110.859099,134.998158 123.525385,120.634187 C118.017114,114.602375 113.521962,107.623361 110.304621,99.9702984 L101.89846,99.9702984 L101.89846,99.9702984 Z M71.5778665,-0.109856967 C36.173417,-0.109856967 6.76326298,25.6824488 0.937820878,59.5936202 L31.2264689,59.5936202 C36.4723331,42.3949273 52.3993155,29.8886634 71.2333143,29.8886634 C87.2264689,29.8886634 100.661723,38.9065672 107.420422,52.1605006 C110.512265,41.2481948 116.100399,31.3931763 123.525385,23.2582565 C110.859099,8.89428607 92.4951512,-0.109856967 71.5778665,-0.109856967 L71.5778665,-0.109856967 Z M140.613805,59.5936202 C140.207644,57.1075043 139.680548,54.6626708 139.037079,52.2705869 C137.811751,54.5915734 136.796349,57.0409938 136.020536,59.5936202 C134.824872,63.4993909 134.183685,67.6482688 134.183685,71.9462219 C134.183685,75.9941874 134.751854,79.9091319 135.815174,83.6130777 L140.723331,83.6130777 C141.309755,79.8150999 141.613234,75.9185031 141.613234,71.9462219 C141.613234,67.7354205 141.273246,63.6071837 140.613805,59.5936202 L140.613805,59.5936202 Z" id="path-13"></path>
    </defs>
    <g id="Page-1" stroke="none" stroke-width="1" fill="white" fill-rule="evenodd" sketch:type="MSPage">
        <g id="logo-edX-current--sketch-produced" sketch:type="MSLayerGroup" transform="translate(1.000000, 1.000000)">
            <g id="Group-3" transform="translate(246.434683, 0.000000)">
                <mask id="mask-2" sketch:name="Clip 2" fill="white">
                    <use xlink:href="#path-1"></use>
                </mask>
                <g id="Clip-2"></g>
                <path d="M-0.0501996577,-0.0183477189 L153.588135,-0.0183477189 L153.588135,186 L-0.0501996577,186 L-0.0501996577,-0.0183477189 Z" id="Fill-1" fill="#00A2E4" sketch:type="MSShapeGroup" mask="url(#mask-2)"></path>
            </g>
            <g id="Group-6" transform="translate(227.495722, 0.000000)">
                <mask id="mask-4" sketch:name="Clip 5" fill="white">
                    <use xlink:href="#path-3"></use>
                </mask>
                <g id="Clip-5"></g>
                <path d="M0.0775812892,-0.0183477189 L18.9161438,-0.0183477189 L18.9161438,33.0075462 L0.0775812892,33.0075462 L0.0775812892,-0.0183477189 Z" id="Fill-4" fill="#006DA3" sketch:type="MSShapeGroup" mask="url(#mask-4)"></path>
            </g>
            <g id="Group-9" transform="translate(227.495722, 149.992602)">
                <mask id="mask-6" sketch:name="Clip 8" fill="white">
                    <use xlink:href="#path-5"></use>
                </mask>
                <g id="Clip-8"></g>
                <path d="M0.0775812892,-0.100912454 L41.4238448,-0.100912454 L41.4238448,36.0073983 L0.0775812892,36.0073983 L0.0775812892,-0.100912454 Z" id="Fill-7" fill="#006DA3" sketch:type="MSShapeGroup" mask="url(#mask-6)"></path>
            </g>
            <g id="Group-12" transform="translate(110.211067, 141.965475)">
                <mask id="mask-8" sketch:name="Clip 11" fill="white">
                    <use xlink:href="#path-7"></use>
                </mask>
                <g id="Clip-11"></g>
                <path d="M0.0867084997,-0.0275215783 L26.0444952,-0.0275215783 L26.0444952,20.6411837 L0.0867084997,20.6411837 L0.0867084997,-0.0275215783 Z" id="Fill-10" fill="#77182C" sketch:type="MSShapeGroup" mask="url(#mask-8)"></path>
            </g>
            <g id="Group-15" transform="translate(104.734740, 65.134402)">
                <mask id="mask-10" sketch:name="Clip 14" fill="white">
                    <use xlink:href="#path-9"></use>
                </mask>
                <g id="Clip-14"></g>
                <path d="M-0.0775812892,0.0733908755 L34.3137479,0.0733908755 L34.3137479,60.4557337 L-0.0775812892,60.4557337 L-0.0775812892,0.0733908755 Z" id="Fill-13" fill="#77182C" sketch:type="MSShapeGroup" mask="url(#mask-10)"></path>
            </g>
            <g id="Group-18" transform="translate(105.647461, 0.000000)">
                <mask id="mask-12" sketch:name="Clip 17" fill="white">
                    <use xlink:href="#path-11"></use>
                </mask>
                <g id="Clip-17"></g>
                <path d="M-0.0319452367,-0.0183477189 L140.764404,-0.0183477189 L140.764404,186 L-0.0319452367,186 L-0.0319452367,-0.0183477189 Z" id="Fill-16" fill="#8A8C8F" sketch:type="MSShapeGroup" mask="url(#mask-12)"></path>
            </g>
            <g id="Group-21" transform="translate(0.000000, 41.970407)">
                <mask id="mask-14" sketch:name="Clip 20" fill="white">
                    <use xlink:href="#path-13"></use>
                </mask>
                <g id="Clip-20"></g>
                <path d="M-0.132344552,-0.128434032 L141.622362,-0.128434032 L141.622362,144.029593 L-0.132344552,144.029593 L-0.132344552,-0.128434032 Z" id="Fill-19" fill="#B62168" sketch:type="MSShapeGroup" mask="url(#mask-14)"></path>
            </g>
        </g>
    </g>
</svg>